<?xml version="1.0" encoding="UTF-8" standalone="no"?>
<svg
   xmlns:dc="http://purl.org/dc/elements/1.1/"
   xmlns:cc="http://creativecommons.org/ns#"
   xmlns:rdf="http://www.w3.org/1999/02/22-rdf-syntax-ns#"
   xmlns:svg="http://www.w3.org/2000/svg"
   xmlns="http://www.w3.org/2000/svg"
   xmlns:sodipodi="http://sodipodi.sourceforge.net/DTD/sodipodi-0.dtd"
   xmlns:inkscape="http://www.inkscape.org/namespaces/inkscape"
   width="58pt"
   height="58pt"
   viewBox="0 0 58 58"
   version="1.1"
   id="svg9"
   sodipodi:docname="logo.svg"
   inkscape:version="0.92.4 (5da689c313, 2019-01-14)">
  <metadata
     id="metadata15">
    <rdf:RDF>
      <cc:Work
         rdf:about="">
        <dc:format>image/svg+xml</dc:format>
        <dc:type
           rdf:resource="http://purl.org/dc/dcmitype/StillImage" />
      </cc:Work>
    </rdf:RDF>
  </metadata>
  <defs
     id="defs13" />
  <sodipodi:namedview
     pagecolor="#ffffff"
     bordercolor="#666666"
     borderopacity="1"
     objecttolerance="10"
     gridtolerance="10"
     guidetolerance="10"
     inkscape:pageopacity="0"
     inkscape:pageshadow="2"
     inkscape:window-width="1920"
     inkscape:window-height="1001"
     id="namedview11"
     showgrid="false"
     inkscape:zoom="8.6315793"
     inkscape:cx="28.593522"
     inkscape:cy="42.110498"
     inkscape:window-x="-9"
     inkscape:window-y="-9"
     inkscape:window-maximized="1"
     inkscape:current-layer="surface1" />
  <g
     id="surface1">
    <path
       style="stroke:none;fill-rule:nonzero;fill:#6c5353;fill-opacity:1"
       d="M 36.84375 6.171875 C 34.308594 6.171875 32.257812 6.171875 32.257812 6.171875 L 30.835938 1.808594 C 30.054688 -0.601562 28.78125 -0.601562 28.003906 1.808594 C 27.214844 4.21875 26.582031 6.171875 26.582031 6.171875 L 21.992188 6.171875 C 19.457031 6.171875 19.0625 7.382812 21.113281 8.871094 C 23.167969 10.355469 24.828125 11.566406 24.828125 11.566406 L 23.40625 15.929688 C 22.625 18.34375 23.652344 19.089844 25.707031 17.601562 C 27.757812 16.109375 29.417969 14.902344 29.417969 14.902344 L 33.128906 17.601562 C 35.179688 19.089844 36.207031 18.34375 35.425781 15.929688 C 34.640625 13.519531 34.007812 11.566406 34.007812 11.566406 L 37.722656 8.871094 C 39.769531 7.382812 39.375 6.171875 36.84375 6.171875 Z M 36.84375 6.171875 "
       id="path2" />
    <path
       style="stroke:none;fill-rule:nonzero;fill:#6c5353;fill-opacity:1"
       d="M 19.785156 21.746094 C 19.785156 21.746094 18.058594 22.90625 17.445312 28.535156 C 20.675781 32.714844 24.6875 32.03125 26.453125 31.449219 C 26.613281 31.394531 26.816406 31.132812 26.828125 30.964844 C 27.0625 26.945312 23.742188 21.585938 22.546875 19.796875 C 21.585938 20.183594 20.648438 20.800781 19.785156 21.746094 Z M 19.785156 21.746094 "
       id="path4" />
    <path
       style="stroke:none;fill-rule:nonzero;fill:#6c5353;fill-opacity:1"
       d="M 36.707031 11.308594 L 37.28125 13.082031 C 37.660156 14.25 37.71875 15.25 37.503906 16.082031 C 44.191406 19.28125 48.832031 26.09375 48.832031 33.984375 C 48.832031 44.933594 39.921875 53.84375 28.976562 53.84375 C 28.859375 53.84375 28.742188 53.824219 28.628906 53.824219 L 28.597656 53.082031 C 28.582031 52.753906 28.820312 52.390625 29.128906 52.273438 L 32.972656 50.832031 C 32.972656 50.832031 34.773438 50.933594 35.523438 49.582031 C 35.902344 48.898438 36.257812 48.421875 36.515625 48.113281 C 36.726562 47.863281 36.722656 47.503906 36.484375 47.269531 C 35.703125 46.511719 34.125 44.847656 33.972656 43.578125 C 33.773438 41.875 31.371094 40.472656 28.269531 40.273438 C 28.269531 40.273438 26.621094 39.007812 26.511719 36.820312 C 26.492188 36.488281 26.246094 36.160156 25.921875 36.238281 C 25.09375 36.441406 23.6875 37.507812 23.617188 42.371094 C 23.617188 42.371094 19.210938 44.605469 18.796875 51.003906 C 18.449219 50.792969 18.097656 50.585938 17.761719 50.355469 C 17.921875 48.410156 18.410156 46.859375 18.988281 45.691406 C 20.128906 43.367188 21.734375 42.074219 22.554688 41.53125 C 22.730469 36.730469 24.289062 35.328125 25.589844 35.003906 C 25.988281 34.90625 26.40625 34.992188 26.738281 35.242188 C 27.117188 35.523438 27.359375 35.984375 27.382812 36.484375 C 27.453125 37.773438 28.214844 38.679688 28.574219 39.039062 C 29.160156 39.09375 29.722656 39.1875 30.246094 39.316406 L 30.296875 38.863281 L 30.699219 34.953125 C 30.765625 34.292969 31.359375 33.734375 32.015625 33.640625 C 34.511719 33.277344 40.066406 31.800781 40.425781 25.800781 C 40.46875 25.136719 39.910156 24.472656 39.265625 24.316406 L 33.976562 23.023438 C 33.976562 23.023438 33.824219 21.746094 32.324219 21.222656 C 31.230469 20.839844 27.464844 18.675781 23.757812 19.4375 C 25.15625 21.570312 28.273438 26.828125 28.027344 31.035156 C 27.992188 31.699219 27.464844 32.378906 26.835938 32.589844 C 26.226562 32.789062 25.136719 33.070312 23.8125 33.070312 C 21.890625 33.070312 19.480469 32.480469 17.308594 30.210938 C 17.265625 30.929688 17.242188 31.710938 17.238281 32.554688 C 17.210938 36.910156 11.679688 41.039062 11.679688 41.039062 L 11.019531 42.40625 C 9.816406 39.84375 9.121094 37 9.121094 33.984375 C 9.121094 25.890625 13.996094 18.925781 20.957031 15.835938 C 20.8125 15.050781 20.882812 14.140625 21.226562 13.078125 L 21.871094 11.09375 C 12.113281 14.128906 5.011719 23.242188 5.011719 33.984375 C 5.011719 47.199219 15.761719 57.953125 28.976562 57.953125 C 42.191406 57.953125 52.941406 47.199219 52.941406 33.984375 C 52.941406 23.476562 46.136719 14.53125 36.707031 11.308594 Z M 31.695312 43.875 C 32.066406 43.875 32.371094 44.175781 32.371094 44.550781 C 32.371094 44.925781 32.066406 45.226562 31.695312 45.226562 C 31.320312 45.226562 31.019531 44.925781 31.019531 44.550781 C 31.019531 44.175781 31.320312 43.875 31.695312 43.875 Z M 31.019531 24.359375 C 31.394531 24.359375 31.695312 24.660156 31.695312 25.035156 C 31.695312 25.40625 31.394531 25.707031 31.019531 25.707031 C 30.644531 25.707031 30.34375 25.40625 30.34375 25.035156 C 30.34375 24.660156 30.644531 24.359375 31.019531 24.359375 Z M 31.019531 24.359375 "
       id="path6" />
  </g>
  <path
     style="opacity:0;fill:#6c5353;fill-opacity:1;stroke:none;stroke-width:0;stroke-linecap:round;stroke-linejoin:miter;stroke-miterlimit:4;stroke-dasharray:none;stroke-dashoffset:0;stroke-opacity:1;paint-order:markers fill stroke"
     d="M 36.241784,77.152531 C 36.084086,77.134393 35.586417,77.080855 35.135852,77.033559 25.364466,76.007857 16.334693,70.191269 11.233973,61.637005 8.8960321,57.716113 7.4896628,53.544524 6.8979433,48.775423 6.7283287,47.408375 6.7551815,42.869903 6.9410817,41.484462 7.5670073,36.819686 8.9585678,32.785181 11.278547,28.908997 c 1.353338,-2.261136 2.843984,-4.14894 4.886546,-6.188487 2.883878,-2.87962 6.080725,-5.060656 9.84683,-6.717961 0.616103,-0.27112 2.371267,-0.93145 2.909084,-1.094458 0.163166,-0.04945 0.14489,0.03982 -0.270583,1.321695 -0.703655,2.171023 -0.781924,2.539964 -0.801655,3.778816 l -0.01741,1.093348 -1.315074,0.676108 c -5.542378,2.849458 -9.946535,7.611151 -12.353629,13.356513 -1.276922,3.047817 -1.907171,6.062508 -1.982942,9.485071 -0.07348,3.319249 0.281155,5.826124 1.246741,8.812979 0.342963,1.060891 1.179239,3.125288 1.266037,3.125288 0.03258,0 0.237171,-0.388955 0.454646,-0.864344 0.386983,-0.845926 0.412141,-0.878455 1.180763,-1.526647 1.957185,-1.650531 4.033879,-4.00647 5.080833,-5.764035 1.243932,-2.088241 1.637922,-3.580047 1.64327,-6.222093 0.0013,-0.630791 0.02505,-1.284385 0.05283,-1.452431 l 0.05051,-0.305538 0.599128,0.559521 c 1.5178,1.417458 3.443701,2.424357 5.530696,2.891558 0.739764,0.165606 1.071876,0.190936 2.491934,0.190064 1.761338,-0.0011 2.457469,-0.09425 3.746226,-0.501366 0.73805,-0.233149 1.231181,-0.618527 1.6049,-1.254215 0.202701,-0.344789 0.221673,-0.45624 0.24796,-1.45661 0.0317,-1.206301 -0.06021,-2.075155 -0.364135,-3.442224 -0.67196,-3.022544 -2.503201,-7.106977 -4.846421,-10.809546 l -0.424766,-0.671182 0.386762,-0.06611 c 0.212719,-0.03636 1.068753,-0.0631 1.902299,-0.05942 1.833937,0.0081 2.906009,0.200742 4.956214,0.890656 1.506303,0.506885 4.595452,1.819104 5.078045,2.157068 0.44395,0.310903 0.916588,0.95261 1.08032,1.466767 0.132064,0.414714 0.145588,0.42751 0.552067,0.522351 0.229178,0.05347 1.885846,0.456897 3.681485,0.896499 3.512179,0.85984 3.712773,0.935225 4.127966,1.55133 0.33461,0.496527 0.389882,0.835423 0.286074,1.75403 -0.146658,1.297796 -0.449801,2.346331 -0.998115,3.452357 -0.586095,1.18224 -1.071334,1.838574 -2.042689,2.762944 -1.804262,1.71699 -4.221171,2.834875 -7.481205,3.460256 -0.572501,0.109824 -1.143899,0.253718 -1.269774,0.319765 -0.333523,0.175 -0.816168,0.70214 -0.960833,1.049413 -0.07749,0.186016 -0.242315,1.448498 -0.430507,3.297472 -0.262115,2.575262 -0.322705,2.990636 -0.431403,2.957474 -0.246363,-0.07516 -1.584874,-0.289414 -1.808082,-0.289414 -0.158458,0 -0.306105,-0.09061 -0.491262,-0.301495 -0.708746,-0.807217 -1.173,-1.841927 -1.305748,-2.910195 -0.04837,-0.389252 -0.142485,-0.838261 -0.209143,-0.997796 -0.267022,-0.639075 -0.898942,-1.136273 -1.583232,-1.245695 -0.762545,-0.121936 -2.036557,0.52132 -2.740634,1.383762 -0.962669,1.179197 -1.647999,3.243882 -1.862122,5.609983 -0.177015,1.956069 -0.111098,1.737785 -0.636243,2.106916 -0.722689,0.507988 -2.377435,2.211157 -2.966665,3.053481 -1.615634,2.309598 -2.588033,5.00063 -2.8949,8.011394 l -0.04231,0.415158 0.699473,0.429412 c 0.384711,0.236176 0.710551,0.418 0.724092,0.404051 0.01354,-0.01395 0.06743,-0.394004 0.119745,-0.844569 0.133385,-1.148663 0.380068,-2.311836 0.704001,-3.319529 0.364772,-1.134737 1.285031,-2.960846 1.978183,-3.925393 0.708527,-0.98594 1.835896,-2.132942 2.726528,-2.774008 1.054985,-0.759366 0.98305,-0.651727 0.98305,-1.470979 0,-1.627774 0.395615,-3.883621 0.890196,-5.076016 0.536698,-1.293938 1.47136,-2.226841 2.237333,-2.233124 0.265572,-0.0022 0.538716,0.312986 0.591383,0.682359 0.22322,1.565532 0.464905,2.263819 1.125185,3.250951 0.257752,0.385343 0.647596,0.868015 0.86632,1.072606 0.381813,0.357141 0.422689,0.374097 1.024507,0.424969 1.761487,0.1489 3.885279,0.859408 5.136797,1.718501 0.541516,0.371719 1.251653,1.128354 1.469274,1.565482 0.105979,0.212876 0.279744,0.738613 0.386145,1.168305 0.338085,1.365339 1.119594,2.539194 2.998524,4.503896 0.705936,0.738162 0.71651,0.859773 0.142245,1.635952 -0.229572,0.31029 -0.638906,0.923993 -0.909631,1.363785 -0.518121,0.841683 -0.926837,1.25803 -1.514013,1.542276 -0.486284,0.235407 -1.139561,0.400315 -1.590438,0.40148 -0.278262,7.37e-4 -1.036508,0.248359 -2.908192,0.949804 -1.392486,0.521858 -2.651021,1.005019 -2.796745,1.073693 -0.448363,0.211296 -0.595217,0.551217 -0.595217,1.377734 v 0.71849 l 1.576977,-0.04717 c 2.248754,-0.06727 4.347552,-0.404554 6.486953,-1.042473 3.146995,-0.938361 6.483456,-2.695849 9.057539,-4.77108 C 64.153127,58.777399 67.462741,46.724276 63.46184,36.041568 61.609547,31.095806 58.2316,26.745566 53.831888,23.639771 52.936057,23.007397 51.452845,22.116248 50.69186,21.753168 l -0.576554,-0.275084 0.03674,-1.083279 c 0.04471,-1.318316 -0.05669,-1.884438 -0.681083,-3.802529 -0.243036,-0.746586 -0.425988,-1.373324 -0.406561,-1.392751 0.08403,-0.08403 2.410996,0.886082 3.824975,1.594628 4.684324,2.347319 8.875331,5.965817 11.897481,10.272235 5.004862,7.131687 6.855543,16.039202 5.114224,24.615266 -0.506205,2.493083 -1.347987,5.004158 -2.452506,7.315948 -0.73278,1.533726 -1.231965,2.408962 -2.252939,3.950142 -4.590581,6.929571 -11.728947,11.810305 -19.829149,13.557838 -2.323005,0.501164 -3.531392,0.625922 -6.339382,0.654503 -1.374223,0.01399 -2.627613,0.01059 -2.785311,-0.0075 z m 6.51924,-16.98072 c 0.960589,-0.585767 0.134226,-2.095756 -0.882813,-1.613139 -0.529173,0.251109 -0.700405,0.8356 -0.392665,1.340345 0.266707,0.437442 0.813645,0.554419 1.275478,0.272794 z M 41.967176,34.065682 c 0.655012,-0.551155 0.252797,-1.592519 -0.615091,-1.592519 -0.277929,0 -0.415152,0.05258 -0.623839,0.239043 -0.236702,0.211493 -0.267535,0.287798 -0.267535,0.662087 0,0.374288 0.03083,0.450593 0.267535,0.662087 0.360249,0.321882 0.876702,0.334097 1.23893,0.0293 z"
     id="path825"
     inkscape:connector-curvature="0"
     transform="scale(0.74999998)" />
  <path
     style="opacity:0;fill:#6c5353;fill-opacity:1;stroke:none;stroke-width:0;stroke-linecap:round;stroke-linejoin:miter;stroke-miterlimit:4;stroke-dasharray:none;stroke-dashoffset:0;stroke-opacity:1;paint-order:markers fill stroke"
     d="M 36.241784,77.152531 C 36.084086,77.134393 35.586417,77.080855 35.135852,77.033559 25.364466,76.007857 16.334693,70.191269 11.233973,61.637005 8.8960321,57.716113 7.4896628,53.544524 6.8979433,48.775423 6.7283287,47.408375 6.7551815,42.869903 6.9410817,41.484462 7.5670073,36.819686 8.9585678,32.785181 11.278547,28.908997 c 1.353338,-2.261136 2.843984,-4.14894 4.886546,-6.188487 2.883878,-2.87962 6.080725,-5.060656 9.84683,-6.717961 0.616103,-0.27112 2.371267,-0.93145 2.909084,-1.094458 0.163166,-0.04945 0.14489,0.03982 -0.270583,1.321695 -0.703655,2.171023 -0.781924,2.539964 -0.801655,3.778816 l -0.01741,1.093348 -1.315074,0.676108 c -5.542378,2.849458 -9.946535,7.611151 -12.353629,13.356513 -1.276922,3.047817 -1.907171,6.062508 -1.982942,9.485071 -0.07348,3.319249 0.281155,5.826124 1.246741,8.812979 0.342963,1.060891 1.179239,3.125288 1.266037,3.125288 0.03258,0 0.237171,-0.388955 0.454646,-0.864344 0.386983,-0.845926 0.412141,-0.878455 1.180763,-1.526647 1.957185,-1.650531 4.033879,-4.00647 5.080833,-5.764035 1.243932,-2.088241 1.637922,-3.580047 1.64327,-6.222093 0.0013,-0.630791 0.02505,-1.284385 0.05283,-1.452431 l 0.05051,-0.305538 0.599128,0.559521 c 1.5178,1.417458 3.443701,2.424357 5.530696,2.891558 0.739764,0.165606 1.071876,0.190936 2.491934,0.190064 1.761338,-0.0011 2.457469,-0.09425 3.746226,-0.501366 0.73805,-0.233149 1.231181,-0.618527 1.6049,-1.254215 0.202701,-0.344789 0.221673,-0.45624 0.24796,-1.45661 0.0317,-1.206301 -0.06021,-2.075155 -0.364135,-3.442224 -0.67196,-3.022544 -2.503201,-7.106977 -4.846421,-10.809546 l -0.424766,-0.671182 0.386762,-0.06611 c 0.212719,-0.03636 1.068753,-0.0631 1.902299,-0.05942 1.833937,0.0081 2.906009,0.200742 4.956214,0.890656 1.506303,0.506885 4.595452,1.819104 5.078045,2.157068 0.44395,0.310903 0.916588,0.95261 1.08032,1.466767 0.132064,0.414714 0.145588,0.42751 0.552067,0.522351 0.229178,0.05347 1.885846,0.456897 3.681485,0.896499 3.512179,0.85984 3.712773,0.935225 4.127966,1.55133 0.33461,0.496527 0.389882,0.835423 0.286074,1.75403 -0.146658,1.297796 -0.449801,2.346331 -0.998115,3.452357 -0.586095,1.18224 -1.071334,1.838574 -2.042689,2.762944 -1.804262,1.71699 -4.221171,2.834875 -7.481205,3.460256 -0.572501,0.109824 -1.143899,0.253718 -1.269774,0.319765 -0.333523,0.175 -0.816168,0.70214 -0.960833,1.049413 -0.07749,0.186016 -0.242315,1.448498 -0.430507,3.297472 -0.262115,2.575262 -0.322705,2.990636 -0.431403,2.957474 -0.246363,-0.07516 -1.584874,-0.289414 -1.808082,-0.289414 -0.158458,0 -0.306105,-0.09061 -0.491262,-0.301495 -0.708746,-0.807217 -1.173,-1.841927 -1.305748,-2.910195 -0.04837,-0.389252 -0.142485,-0.838261 -0.209143,-0.997796 -0.267022,-0.639075 -0.898942,-1.136273 -1.583232,-1.245695 -0.762545,-0.121936 -2.036557,0.52132 -2.740634,1.383762 -0.962669,1.179197 -1.647999,3.243882 -1.862122,5.609983 -0.177015,1.956069 -0.111098,1.737785 -0.636243,2.106916 -0.722689,0.507988 -2.377435,2.211157 -2.966665,3.053481 -1.615634,2.309598 -2.588033,5.00063 -2.8949,8.011394 l -0.04231,0.415158 0.699473,0.429412 c 0.384711,0.236176 0.710551,0.418 0.724092,0.404051 0.01354,-0.01395 0.06743,-0.394004 0.119745,-0.844569 0.133385,-1.148663 0.380068,-2.311836 0.704001,-3.319529 0.364772,-1.134737 1.285031,-2.960846 1.978183,-3.925393 0.708527,-0.98594 1.835896,-2.132942 2.726528,-2.774008 1.054985,-0.759366 0.98305,-0.651727 0.98305,-1.470979 0,-1.627774 0.395615,-3.883621 0.890196,-5.076016 0.536698,-1.293938 1.47136,-2.226841 2.237333,-2.233124 0.265572,-0.0022 0.538716,0.312986 0.591383,0.682359 0.22322,1.565532 0.464905,2.263819 1.125185,3.250951 0.257752,0.385343 0.647596,0.868015 0.86632,1.072606 0.381813,0.357141 0.422689,0.374097 1.024507,0.424969 1.761487,0.1489 3.885279,0.859408 5.136797,1.718501 0.541516,0.371719 1.251653,1.128354 1.469274,1.565482 0.105979,0.212876 0.279744,0.738613 0.386145,1.168305 0.338085,1.365339 1.119594,2.539194 2.998524,4.503896 0.705936,0.738162 0.71651,0.859773 0.142245,1.635952 -0.229572,0.31029 -0.638906,0.923993 -0.909631,1.363785 -0.518121,0.841683 -0.926837,1.25803 -1.514013,1.542276 -0.486284,0.235407 -1.139561,0.400315 -1.590438,0.40148 -0.278262,7.37e-4 -1.036508,0.248359 -2.908192,0.949804 -1.392486,0.521858 -2.651021,1.005019 -2.796745,1.073693 -0.448363,0.211296 -0.595217,0.551217 -0.595217,1.377734 v 0.71849 l 1.576977,-0.04717 c 2.248754,-0.06727 4.347552,-0.404554 6.486953,-1.042473 3.146995,-0.938361 6.483456,-2.695849 9.057539,-4.77108 C 64.153127,58.777399 67.462741,46.724276 63.46184,36.041568 61.609547,31.095806 58.2316,26.745566 53.831888,23.639771 52.936057,23.007397 51.452845,22.116248 50.69186,21.753168 l -0.576554,-0.275084 0.03674,-1.083279 c 0.04471,-1.318316 -0.05669,-1.884438 -0.681083,-3.802529 -0.243036,-0.746586 -0.425988,-1.373324 -0.406561,-1.392751 0.08403,-0.08403 2.410996,0.886082 3.824975,1.594628 4.684324,2.347319 8.875331,5.965817 11.897481,10.272235 5.004862,7.131687 6.855543,16.039202 5.114224,24.615266 -0.506205,2.493083 -1.347987,5.004158 -2.452506,7.315948 -0.73278,1.533726 -1.231965,2.408962 -2.252939,3.950142 -4.590581,6.929571 -11.728947,11.810305 -19.829149,13.557838 -2.323005,0.501164 -3.531392,0.625922 -6.339382,0.654503 -1.374223,0.01399 -2.627613,0.01059 -2.785311,-0.0075 z m 6.51924,-16.98072 c 0.960589,-0.585767 0.134226,-2.095756 -0.882813,-1.613139 -0.529173,0.251109 -0.700405,0.8356 -0.392665,1.340345 0.266707,0.437442 0.813645,0.554419 1.275478,0.272794 z M 41.967176,34.065682 c 0.655012,-0.551155 0.252797,-1.592519 -0.615091,-1.592519 -0.277929,0 -0.415152,0.05258 -0.623839,0.239043 -0.236702,0.211493 -0.267535,0.287798 -0.267535,0.662087 0,0.374288 0.03083,0.450593 0.267535,0.662087 0.360249,0.321882 0.876702,0.334097 1.23893,0.0293 z"
     id="path827"
     inkscape:connector-curvature="0"
     transform="scale(0.74999998)" />
  <path
     style="opacity:0;fill:#6c5353;fill-opacity:1;stroke:none;stroke-width:0;stroke-linecap:round;stroke-linejoin:miter;stroke-miterlimit:4;stroke-dasharray:none;stroke-dashoffset:0;stroke-opacity:1;paint-order:markers fill stroke"
     d="m 31.498269,24.346464 c -0.362507,-0.195797 -0.530248,-0.519697 -0.566853,-1.094566 -0.05,-0.785204 0.05641,-1.204616 1.187078,-4.678941 0.564801,-1.735523 0.995524,-3.184249 0.957163,-3.219393 -0.03836,-0.03514 -1.175681,-0.862823 -2.527376,-1.839289 C 27.96408,11.647447 27.201475,11.030756 26.811618,10.492574 26.54264,10.12126 26.378285,9.6044664 26.453655,9.3669982 26.554588,9.0489854 26.918625,8.7216868 27.377246,8.5366143 27.836247,8.3513887 27.915309,8.3471387 31.654213,8.3067181 l 3.809322,-0.041182 0.180318,-0.5324859 c 0.09917,-0.2928672 0.5703,-1.7282989 1.046946,-3.1898484 0.953162,-2.9227014 1.226219,-3.56417906 1.734843,-4.07556467 0.761713,-0.76584852 1.518265,-0.46511936 2.202726,0.87558257 0.126514,0.2478108 0.711944,1.9067091 1.300957,3.6864407 l 1.070934,3.2358757 3.809322,0.043448 c 4.230787,0.048255 4.290131,0.055677 4.877945,0.6100568 0.236142,0.2227102 0.283072,0.3244305 0.283072,0.6135613 0,0.8925718 -0.518837,1.4068808 -3.884262,3.8503588 -1.513232,1.098688 -2.751332,2.031396 -2.751332,2.072685 0,0.04129 0.446113,1.444854 0.991362,3.119034 0.545248,1.674179 1.042278,3.283582 1.104509,3.576449 0.320656,1.509032 -0.103842,2.372223 -1.118651,2.274712 -0.701967,-0.06745 -1.512023,-0.554247 -4.310445,-2.590331 -1.495351,-1.087992 -2.743445,-1.978166 -2.773544,-1.978166 -0.0301,0 -1.258112,0.874485 -2.728921,1.9433 -1.470808,1.068815 -2.95068,2.084636 -3.288603,2.25738 -0.690633,0.353045 -1.37836,0.468884 -1.712442,0.28844 z"
     id="path829"
     inkscape:connector-curvature="0"
     transform="scale(0.74999998)" />
  <path
     style="opacity:0;fill:#6c5353;fill-opacity:1;stroke:none;stroke-width:0;stroke-linecap:round;stroke-linejoin:miter;stroke-miterlimit:4;stroke-dasharray:none;stroke-dashoffset:0;stroke-opacity:1;paint-order:markers fill stroke"
     d="m 31.498269,24.346464 c -0.362507,-0.195797 -0.530248,-0.519697 -0.566853,-1.094566 -0.05,-0.785204 0.05641,-1.204616 1.187078,-4.678941 0.564801,-1.735523 0.995524,-3.184249 0.957163,-3.219393 -0.03836,-0.03514 -1.175681,-0.862823 -2.527376,-1.839289 C 27.96408,11.647447 27.201475,11.030756 26.811618,10.492574 26.54264,10.12126 26.378285,9.6044664 26.453655,9.3669982 26.554588,9.0489854 26.918625,8.7216868 27.377246,8.5366143 27.836247,8.3513887 27.915309,8.3471387 31.654213,8.3067181 l 3.809322,-0.041182 0.180318,-0.5324859 c 0.09917,-0.2928672 0.5703,-1.7282989 1.046946,-3.1898484 0.953162,-2.9227014 1.226219,-3.56417906 1.734843,-4.07556467 0.761713,-0.76584852 1.518265,-0.46511936 2.202726,0.87558257 0.126514,0.2478108 0.711944,1.9067091 1.300957,3.6864407 l 1.070934,3.2358757 3.809322,0.043448 c 4.230787,0.048255 4.290131,0.055677 4.877945,0.6100568 0.236142,0.2227102 0.283072,0.3244305 0.283072,0.6135613 0,0.8925718 -0.518837,1.4068808 -3.884262,3.8503588 -1.513232,1.098688 -2.751332,2.031396 -2.751332,2.072685 0,0.04129 0.446113,1.444854 0.991362,3.119034 0.545248,1.674179 1.042278,3.283582 1.104509,3.576449 0.320656,1.509032 -0.103842,2.372223 -1.118651,2.274712 -0.701967,-0.06745 -1.512023,-0.554247 -4.310445,-2.590331 -1.495351,-1.087992 -2.743445,-1.978166 -2.773544,-1.978166 -0.0301,0 -1.258112,0.874485 -2.728921,1.9433 -1.470808,1.068815 -2.95068,2.084636 -3.288603,2.25738 -0.690633,0.353045 -1.37836,0.468884 -1.712442,0.28844 z"
     id="path831"
     inkscape:connector-curvature="0"
     transform="scale(0.74999998)" />
  <path
     style="opacity:0;fill:#6c5353;fill-opacity:1;stroke:none;stroke-width:0;stroke-linecap:round;stroke-linejoin:miter;stroke-miterlimit:4;stroke-dasharray:none;stroke-dashoffset:0;stroke-opacity:1;paint-order:markers fill stroke"
     d="M 36.241784,77.152531 C 36.084086,77.134393 35.586417,77.080855 35.135852,77.033559 25.364466,76.007857 16.334693,70.191269 11.233973,61.637005 8.8960321,57.716113 7.4896628,53.544524 6.8979433,48.775423 6.7283287,47.408375 6.7551815,42.869903 6.9410817,41.484462 7.5670073,36.819686 8.9585678,32.785181 11.278547,28.908997 c 1.353338,-2.261136 2.843984,-4.14894 4.886546,-6.188487 2.883878,-2.87962 6.080725,-5.060656 9.84683,-6.717961 0.616103,-0.27112 2.371267,-0.93145 2.909084,-1.094458 0.163166,-0.04945 0.14489,0.03982 -0.270583,1.321695 -0.703655,2.171023 -0.781924,2.539964 -0.801655,3.778816 l -0.01741,1.093348 -1.315074,0.676108 c -5.542378,2.849458 -9.946535,7.611151 -12.353629,13.356513 -1.276922,3.047817 -1.907171,6.062508 -1.982942,9.485071 -0.07348,3.319249 0.281155,5.826124 1.246741,8.812979 0.342963,1.060891 1.179239,3.125288 1.266037,3.125288 0.03258,0 0.237171,-0.388955 0.454646,-0.864344 0.386983,-0.845926 0.412141,-0.878455 1.180763,-1.526647 1.957185,-1.650531 4.033879,-4.00647 5.080833,-5.764035 1.243932,-2.088241 1.637922,-3.580047 1.64327,-6.222093 0.0013,-0.630791 0.02505,-1.284385 0.05283,-1.452431 l 0.05051,-0.305538 0.599128,0.559521 c 1.5178,1.417458 3.443701,2.424357 5.530696,2.891558 0.739764,0.165606 1.071876,0.190936 2.491934,0.190064 1.761338,-0.0011 2.457469,-0.09425 3.746226,-0.501366 0.73805,-0.233149 1.231181,-0.618527 1.6049,-1.254215 0.202701,-0.344789 0.221673,-0.45624 0.24796,-1.45661 0.0317,-1.206301 -0.06021,-2.075155 -0.364135,-3.442224 -0.67196,-3.022544 -2.503201,-7.106977 -4.846421,-10.809546 l -0.424766,-0.671182 0.386762,-0.06611 c 0.212719,-0.03636 1.068753,-0.0631 1.902299,-0.05942 1.833937,0.0081 2.906009,0.200742 4.956214,0.890656 1.506303,0.506885 4.595452,1.819104 5.078045,2.157068 0.44395,0.310903 0.916588,0.95261 1.08032,1.466767 0.132064,0.414714 0.145588,0.42751 0.552067,0.522351 0.229178,0.05347 1.885846,0.456897 3.681485,0.896499 3.512179,0.85984 3.712773,0.935225 4.127966,1.55133 0.33461,0.496527 0.389882,0.835423 0.286074,1.75403 -0.146658,1.297796 -0.449801,2.346331 -0.998115,3.452357 -0.586095,1.18224 -1.071334,1.838574 -2.042689,2.762944 -1.804262,1.71699 -4.221171,2.834875 -7.481205,3.460256 -0.572501,0.109824 -1.143899,0.253718 -1.269774,0.319765 -0.333523,0.175 -0.816168,0.70214 -0.960833,1.049413 -0.07749,0.186016 -0.242315,1.448498 -0.430507,3.297472 -0.262115,2.575262 -0.322705,2.990636 -0.431403,2.957474 -0.246363,-0.07516 -1.584874,-0.289414 -1.808082,-0.289414 -0.158458,0 -0.306105,-0.09061 -0.491262,-0.301495 -0.708746,-0.807217 -1.173,-1.841927 -1.305748,-2.910195 -0.04837,-0.389252 -0.142485,-0.838261 -0.209143,-0.997796 -0.267022,-0.639075 -0.898942,-1.136273 -1.583232,-1.245695 -0.762545,-0.121936 -2.036557,0.52132 -2.740634,1.383762 -0.962669,1.179197 -1.647999,3.243882 -1.862122,5.609983 -0.177015,1.956069 -0.111098,1.737785 -0.636243,2.106916 -0.722689,0.507988 -2.377435,2.211157 -2.966665,3.053481 -1.615634,2.309598 -2.588033,5.00063 -2.8949,8.011394 l -0.04231,0.415158 0.699473,0.429412 c 0.384711,0.236176 0.710551,0.418 0.724092,0.404051 0.01354,-0.01395 0.06743,-0.394004 0.119745,-0.844569 0.133385,-1.148663 0.380068,-2.311836 0.704001,-3.319529 0.364772,-1.134737 1.285031,-2.960846 1.978183,-3.925393 0.708527,-0.98594 1.835896,-2.132942 2.726528,-2.774008 1.054985,-0.759366 0.98305,-0.651727 0.98305,-1.470979 0,-1.627774 0.395615,-3.883621 0.890196,-5.076016 0.536698,-1.293938 1.47136,-2.226841 2.237333,-2.233124 0.265572,-0.0022 0.538716,0.312986 0.591383,0.682359 0.22322,1.565532 0.464905,2.263819 1.125185,3.250951 0.257752,0.385343 0.647596,0.868015 0.86632,1.072606 0.381813,0.357141 0.422689,0.374097 1.024507,0.424969 1.761487,0.1489 3.885279,0.859408 5.136797,1.718501 0.541516,0.371719 1.251653,1.128354 1.469274,1.565482 0.105979,0.212876 0.279744,0.738613 0.386145,1.168305 0.338085,1.365339 1.119594,2.539194 2.998524,4.503896 0.705936,0.738162 0.71651,0.859773 0.142245,1.635952 -0.229572,0.31029 -0.638906,0.923993 -0.909631,1.363785 -0.518121,0.841683 -0.926837,1.25803 -1.514013,1.542276 -0.486284,0.235407 -1.139561,0.400315 -1.590438,0.40148 -0.278262,7.37e-4 -1.036508,0.248359 -2.908192,0.949804 -1.392486,0.521858 -2.651021,1.005019 -2.796745,1.073693 -0.448363,0.211296 -0.595217,0.551217 -0.595217,1.377734 v 0.71849 l 1.576977,-0.04717 c 2.248754,-0.06727 4.347552,-0.404554 6.486953,-1.042473 3.146995,-0.938361 6.483456,-2.695849 9.057539,-4.77108 C 64.153127,58.777399 67.462741,46.724276 63.46184,36.041568 61.609547,31.095806 58.2316,26.745566 53.831888,23.639771 52.936057,23.007397 51.452845,22.116248 50.69186,21.753168 l -0.576554,-0.275084 0.03674,-1.083279 c 0.04471,-1.318316 -0.05669,-1.884438 -0.681083,-3.802529 -0.243036,-0.746586 -0.425988,-1.373324 -0.406561,-1.392751 0.08403,-0.08403 2.410996,0.886082 3.824975,1.594628 4.684324,2.347319 8.875331,5.965817 11.897481,10.272235 5.004862,7.131687 6.855543,16.039202 5.114224,24.615266 -0.506205,2.493083 -1.347987,5.004158 -2.452506,7.315948 -0.73278,1.533726 -1.231965,2.408962 -2.252939,3.950142 -4.590581,6.929571 -11.728947,11.810305 -19.829149,13.557838 -2.323005,0.501164 -3.531392,0.625922 -6.339382,0.654503 -1.374223,0.01399 -2.627613,0.01059 -2.785311,-0.0075 z m 6.51924,-16.98072 c 0.960589,-0.585767 0.134226,-2.095756 -0.882813,-1.613139 -0.529173,0.251109 -0.700405,0.8356 -0.392665,1.340345 0.266707,0.437442 0.813645,0.554419 1.275478,0.272794 z M 41.967176,34.065682 c 0.655012,-0.551155 0.252797,-1.592519 -0.615091,-1.592519 -0.277929,0 -0.415152,0.05258 -0.623839,0.239043 -0.236702,0.211493 -0.267535,0.287798 -0.267535,0.662087 0,0.374288 0.03083,0.450593 0.267535,0.662087 0.360249,0.321882 0.876702,0.334097 1.23893,0.0293 z"
     id="path833"
     inkscape:connector-curvature="0"
     transform="scale(0.74999998)" />
</svg>
