<?xml version="1.0" encoding="UTF-8"?>
<svg xmlns="http://www.w3.org/2000/svg" xmlns:xlink="http://www.w3.org/1999/xlink" width="58pt" height="58pt" viewBox="0 0 58 58" version="1.1">
<g id="surface1">
<path style=" stroke:none;fill-rule:nonzero;fill:rgb(0%,0%,0%);fill-opacity:1;" d="M 36.84375 6.171875 C 34.308594 6.171875 32.257812 6.171875 32.257812 6.171875 L 30.835938 1.808594 C 30.054688 -0.601562 28.78125 -0.601562 28.003906 1.808594 C 27.214844 4.21875 26.582031 6.171875 26.582031 6.171875 L 21.992188 6.171875 C 19.457031 6.171875 19.0625 7.382812 21.113281 8.871094 C 23.167969 10.355469 24.828125 11.566406 24.828125 11.566406 L 23.40625 15.929688 C 22.625 18.34375 23.652344 19.089844 25.707031 17.601562 C 27.757812 16.109375 29.417969 14.902344 29.417969 14.902344 L 33.128906 17.601562 C 35.179688 19.089844 36.207031 18.34375 35.425781 15.929688 C 34.640625 13.519531 34.007812 11.566406 34.007812 11.566406 L 37.722656 8.871094 C 39.769531 7.382812 39.375 6.171875 36.84375 6.171875 Z M 36.84375 6.171875 "/>
<path style=" stroke:none;fill-rule:nonzero;fill:rgb(0%,0%,0%);fill-opacity:1;" d="M 19.785156 21.746094 C 19.785156 21.746094 18.058594 22.90625 17.445312 28.535156 C 20.675781 32.714844 24.6875 32.03125 26.453125 31.449219 C 26.613281 31.394531 26.816406 31.132812 26.828125 30.964844 C 27.0625 26.945312 23.742188 21.585938 22.546875 19.796875 C 21.585938 20.183594 20.648438 20.800781 19.785156 21.746094 Z M 19.785156 21.746094 "/>
<path style=" stroke:none;fill-rule:nonzero;fill:rgb(0%,0%,0%);fill-opacity:1;" d="M 36.707031 11.308594 L 37.28125 13.082031 C 37.660156 14.25 37.71875 15.25 37.503906 16.082031 C 44.191406 19.28125 48.832031 26.09375 48.832031 33.984375 C 48.832031 44.933594 39.921875 53.84375 28.976562 53.84375 C 28.859375 53.84375 28.742188 53.824219 28.628906 53.824219 L 28.597656 53.082031 C 28.582031 52.753906 28.820312 52.390625 29.128906 52.273438 L 32.972656 50.832031 C 32.972656 50.832031 34.773438 50.933594 35.523438 49.582031 C 35.902344 48.898438 36.257812 48.421875 36.515625 48.113281 C 36.726562 47.863281 36.722656 47.503906 36.484375 47.269531 C 35.703125 46.511719 34.125 44.847656 33.972656 43.578125 C 33.773438 41.875 31.371094 40.472656 28.269531 40.273438 C 28.269531 40.273438 26.621094 39.007812 26.511719 36.820312 C 26.492188 36.488281 26.246094 36.160156 25.921875 36.238281 C 25.09375 36.441406 23.6875 37.507812 23.617188 42.371094 C 23.617188 42.371094 19.210938 44.605469 18.796875 51.003906 C 18.449219 50.792969 18.097656 50.585938 17.761719 50.355469 C 17.921875 48.410156 18.410156 46.859375 18.988281 45.691406 C 20.128906 43.367188 21.734375 42.074219 22.554688 41.53125 C 22.730469 36.730469 24.289062 35.328125 25.589844 35.003906 C 25.988281 34.90625 26.40625 34.992188 26.738281 35.242188 C 27.117188 35.523438 27.359375 35.984375 27.382812 36.484375 C 27.453125 37.773438 28.214844 38.679688 28.574219 39.039062 C 29.160156 39.09375 29.722656 39.1875 30.246094 39.316406 L 30.296875 38.863281 L 30.699219 34.953125 C 30.765625 34.292969 31.359375 33.734375 32.015625 33.640625 C 34.511719 33.277344 40.066406 31.800781 40.425781 25.800781 C 40.46875 25.136719 39.910156 24.472656 39.265625 24.316406 L 33.976562 23.023438 C 33.976562 23.023438 33.824219 21.746094 32.324219 21.222656 C 31.230469 20.839844 27.464844 18.675781 23.757812 19.4375 C 25.15625 21.570312 28.273438 26.828125 28.027344 31.035156 C 27.992188 31.699219 27.464844 32.378906 26.835938 32.589844 C 26.226562 32.789062 25.136719 33.070312 23.8125 33.070312 C 21.890625 33.070312 19.480469 32.480469 17.308594 30.210938 C 17.265625 30.929688 17.242188 31.710938 17.238281 32.554688 C 17.210938 36.910156 11.679688 41.039062 11.679688 41.039062 L 11.019531 42.40625 C 9.816406 39.84375 9.121094 37 9.121094 33.984375 C 9.121094 25.890625 13.996094 18.925781 20.957031 15.835938 C 20.8125 15.050781 20.882812 14.140625 21.226562 13.078125 L 21.871094 11.09375 C 12.113281 14.128906 5.011719 23.242188 5.011719 33.984375 C 5.011719 47.199219 15.761719 57.953125 28.976562 57.953125 C 42.191406 57.953125 52.941406 47.199219 52.941406 33.984375 C 52.941406 23.476562 46.136719 14.53125 36.707031 11.308594 Z M 31.695312 43.875 C 32.066406 43.875 32.371094 44.175781 32.371094 44.550781 C 32.371094 44.925781 32.066406 45.226562 31.695312 45.226562 C 31.320312 45.226562 31.019531 44.925781 31.019531 44.550781 C 31.019531 44.175781 31.320312 43.875 31.695312 43.875 Z M 31.019531 24.359375 C 31.394531 24.359375 31.695312 24.660156 31.695312 25.035156 C 31.695312 25.40625 31.394531 25.707031 31.019531 25.707031 C 30.644531 25.707031 30.34375 25.40625 30.34375 25.035156 C 30.34375 24.660156 30.644531 24.359375 31.019531 24.359375 Z M 31.019531 24.359375 "/>
</g>
</svg>
